<svg width="572" height="772" viewBox="0 0 572 772" fill="none" xmlns="http://www.w3.org/2000/svg">
<path d="M82.7245 237.327C73.8054 269.322 71.9961 303.007 77.434 335.838C82.8719 368.668 95.4147 399.784 114.116 426.834L114.117 426.836C123.5 440.28 129.989 455.67 133.141 471.96C136.292 488.249 136.033 505.055 132.38 521.232L132.275 521.695L132.728 521.834L300.31 573.009L300.763 573.147L300.916 572.7C306.276 557.009 314.806 542.696 325.932 530.725C337.058 518.754 350.52 509.404 365.411 503.303L365.412 503.303C395.308 490.959 422.096 471.677 443.734 446.928C465.373 422.179 481.291 392.617 490.274 360.497C498.254 332.255 500.721 302.637 497.531 273.387C494.34 244.136 485.555 215.844 471.693 190.176C457.83 164.508 439.17 141.982 416.81 123.927C394.451 105.872 368.844 92.6514 341.497 85.045C230.549 54.1418 114.496 122.461 82.7245 237.327ZM82.7245 237.327L83.2031 237.472L82.7242 237.328C82.7243 237.328 82.7244 237.328 82.7245 237.327ZM561.01 382.1L561.01 382.101C548.911 425.383 527.465 465.217 498.309 498.562C469.154 531.906 433.061 557.879 392.786 574.499C387.277 576.692 382.326 580.166 378.31 584.653C374.293 589.142 371.317 594.526 369.609 600.394L369.608 600.398L367.854 606.612C363.237 622.971 352.562 636.749 338.182 644.917C323.802 653.085 306.897 654.974 291.184 650.176L100.003 591.794C84.2902 586.996 71.05 575.9 63.1976 560.944C55.3448 545.986 53.5244 528.393 58.1417 512.034L59.8957 505.82C61.5225 500.031 61.8483 493.93 60.8475 487.989C59.8468 482.048 57.5466 476.425 54.123 471.553C28.9228 435.105 12.0219 393.172 4.70045 348.925C-2.62105 304.678 -0.170882 259.277 11.8661 216.158L11.8664 216.157C54.6923 61.3285 211.116 -30.6819 360.624 10.9317C397.458 21.1869 431.948 39.0025 462.065 63.3303C492.181 87.6581 517.315 118.007 535.988 152.592C554.661 187.177 566.495 225.298 570.792 264.713C575.09 304.129 571.764 344.04 561.01 382.1ZM434.018 325.424L433.901 326.141L434.025 326.118C433.135 330.818 431.406 335.306 428.926 339.348C426.319 343.597 422.933 347.269 418.963 350.155C414.993 353.041 410.517 355.085 405.789 356.171C401.062 357.257 396.177 357.363 391.411 356.485C386.646 355.607 382.094 353.761 378.014 351.052C373.934 348.344 370.406 344.826 367.632 340.697C362.029 332.36 359.838 322.044 361.545 312.02L361.546 312.015C363.87 297.434 362.225 282.466 356.796 268.803C351.369 255.143 342.374 243.332 330.828 234.707C323.171 228.655 318.088 219.725 316.67 209.822C315.252 199.915 317.614 189.823 323.252 181.703C328.891 173.583 337.355 168.082 346.833 166.37C356.308 164.658 366.05 166.867 373.98 172.524C396.689 189.652 414.347 213.043 424.956 240.059C435.567 267.077 438.706 296.645 434.018 325.424ZM329.266 743.327C326.51 753.094 320.137 761.318 311.554 766.193C302.972 771.067 292.885 772.195 283.51 769.332L44.5337 696.354C35.1586 693.491 27.2576 686.871 22.5712 677.945C17.8843 669.017 16.7971 658.515 19.5537 648.749C22.3102 638.983 28.683 630.758 37.2655 625.883C45.8473 621.009 55.935 619.882 65.3101 622.745L304.286 695.722C313.661 698.585 321.562 705.205 326.249 714.132C330.935 723.059 332.023 733.561 329.266 743.327Z" fill="black" stroke="url(#paint0_linear_660_37)"/>
<defs>
<linearGradient id="paint0_linear_660_37" x1="367.372" y1="12.3801" x2="148.635" y2="728.667" gradientUnits="userSpaceOnUse">
<stop stop-color="#EE7FA7"/>
<stop offset="1" stop-color="#997ED7"/>
</linearGradient>
</defs>
</svg>
