<svg id="ebrt1DQuNPM1" xmlns="http://www.w3.org/2000/svg" xmlns:xlink="http://www.w3.org/1999/xlink" viewBox="0 0 801 1030" shape-rendering="geometricPrecision" text-rendering="geometricPrecision"><defs><filter id="ebrt1DQuNPM2-filter" x="-150%" width="400%" y="-150%" height="400%"><feComponentTransfer id="ebrt1DQuNPM2-filter-brightness-0" result="result"><feFuncR id="ebrt1DQuNPM2-filter-brightness-0-R" type="linear" slope="10"/><feFuncG id="ebrt1DQuNPM2-filter-brightness-0-G" type="linear" slope="10"/><feFuncB id="ebrt1DQuNPM2-filter-brightness-0-B" type="linear" slope="10"/></feComponentTransfer></filter><linearGradient id="ebrt1DQuNPM4-stroke" x1="596.372" y1="154.38" x2="377.635" y2="870.667" spreadMethod="pad" gradientUnits="userSpaceOnUse" gradientTransform="translate(0 0)"><stop id="ebrt1DQuNPM4-stroke-0" offset="0%" stop-color="#ee7fa7"/><stop id="ebrt1DQuNPM4-stroke-1" offset="100%" stop-color="#997ed7"/></linearGradient></defs><g style="mix-blend-mode:multiply" transform="translate(-229.576279-12.90535)" clip-path="url(#ebrt1DQuNPM13)" filter="url(#ebrt1DQuNPM2-filter)"><g opacity="0.2"><path d="M311.724,379.327c-8.919,31.995-10.728,65.68-5.29,98.511c5.438,32.83,17.981,63.946,36.682,90.996l.001.002c9.383,13.444,15.872,28.834,19.024,45.124c3.151,16.289,2.892,33.095-.761,49.272l-.105.463.453.139L529.31,715.009l.453.138.153-.447c5.36-15.691,13.89-30.004,25.016-41.975s24.588-21.321,39.479-27.422h.001c29.896-12.344,56.684-31.626,78.322-56.375c21.639-24.749,37.557-54.311,46.54-86.431c7.98-28.242,10.447-57.86,7.257-87.11-3.191-29.251-11.976-57.543-25.838-83.211-13.863-25.668-32.523-48.194-54.883-66.249-22.359-18.055-47.966-31.276-75.313-38.882-110.948-30.903-227.001,37.416-258.773,152.282Zm0,0l.479.145-.479-.144c0,0,0,0,0-.001ZM790.01,524.1v.001c-12.099,43.282-33.545,83.116-62.701,116.461-29.155,33.344-65.248,59.317-105.523,75.937-5.509,2.193-10.46,5.667-14.476,10.154-4.017,4.489-6.993,9.873-8.701,15.741l-.001.004-1.754,6.214c-4.617,16.359-15.292,30.137-29.672,38.305s-31.285,10.057-46.998,5.259L329.003,733.794c-15.713-4.798-28.953-15.894-36.805-30.85-7.853-14.958-9.674-32.551-5.056-48.91l1.754-6.214c1.626-5.789,1.952-11.89.951-17.831-1-5.941-3.3-11.564-6.724-16.436-25.2-36.448-42.101-78.381-49.423-122.628-7.321-44.247-4.871-89.648,7.166-132.767v-.001c42.826-154.829,199.25-246.839,348.758-205.225c36.834,10.255,71.324,28.07,101.441,52.398c30.116,24.328,55.25,54.677,73.923,89.262s30.507,72.706,34.804,112.121c4.298,39.416.972,79.327-9.782,117.387ZM663.018,467.424l-.117.717.124-.023c-.89,4.7-2.619,9.188-5.099,13.23-2.607,4.249-5.993,7.921-9.963,10.807s-8.446,4.93-13.174,6.016c-4.727,1.086-9.612,1.192-14.378.314-4.765-.878-9.317-2.724-13.397-5.433-4.08-2.708-7.608-6.226-10.382-10.355-5.603-8.337-7.794-18.653-6.087-28.677l.001-.005c2.324-14.581.679-29.549-4.75-43.212-5.427-13.66-14.422-25.471-25.968-34.096-7.657-6.052-12.74-14.982-14.158-24.885-1.418-9.907.944-19.999,6.582-28.119c5.639-8.12,14.103-13.621,23.581-15.333c9.475-1.712,19.217.497,27.147,6.154c22.709,17.128,40.367,40.519,50.976,67.535c10.611,27.018,13.75,56.586,9.062,85.365ZM558.266,885.327c-2.756,9.767-9.129,17.991-17.712,22.866-8.582,4.874-18.669,6.002-28.044,3.139L273.534,838.354c-9.375-2.863-17.276-9.483-21.963-18.409-4.687-8.928-5.774-19.43-3.017-29.196c2.756-9.766,9.129-17.991,17.711-22.866c8.582-4.874,18.67-6.001,28.045-3.138l238.976,72.977c9.375,2.863,17.276,9.483,21.963,18.41c4.686,8.927,5.774,19.429,3.017,29.195Z" stroke="url(#ebrt1DQuNPM4-stroke)"/><g clip-path="url(#ebrt1DQuNPM11)"><g><g mask="url(#ebrt1DQuNPM9)"><path d="M458.375,425.527c-6.144-1.876-12.686-1.815-18.797.175-6.111,1.991-11.517,5.822-15.535,11.008-4.018,5.187-6.468,11.496-7.038,18.131-.571,6.634.763,13.296,3.832,19.142s7.736,10.614,13.411,13.701c5.674,3.087,12.101,4.355,18.469,3.643c6.367-.713,12.388-3.373,17.301-7.644c4.914-4.272,8.499-9.963,10.303-16.355c2.409-8.57,1.451-17.784-2.663-25.62-4.115-7.837-11.049-13.656-19.283-16.181Zm-14.032,49.715c-3.309-1.011-6.255-3.019-8.466-5.771s-3.588-6.124-3.957-9.69c-.369-3.567.287-7.166,1.885-10.344c1.599-3.179,4.067-5.792,7.093-7.512c3.027-1.719,6.475-2.465,9.91-2.146c3.434.32,6.7,1.691,9.385,3.942c2.685,2.25,4.668,5.278,5.699,8.701c1.03,3.423,1.062,7.086.091,10.528-1.303,4.615-4.315,8.502-8.373,10.807s-8.83,2.839-13.267,1.485Zm59.737-.125l.277-.982l11.436-8.327c.959-.697,1.748-1.619,2.302-2.692.554-1.072.858-2.265.888-3.482.162-6.382-.489-12.759-1.935-18.964-.282-1.185-.828-2.284-1.594-3.209s-1.731-1.649-2.816-2.113l-12.872-5.619-.469-.892l2.416-14.308c.21-1.2.145-2.434-.189-3.603-.334-1.17-.928-2.24-1.734-3.127-4.234-4.629-9.04-8.655-14.291-11.971-1.003-.628-2.133-1.002-3.3-1.092-1.167-.091-2.338.106-3.419.572l-12.917,5.506-.944-.288-8.006-11.895c-.67-.998-1.556-1.818-2.587-2.395-1.031-.576-2.178-.892-3.348-.923-6.141-.159-12.274.528-18.241,2.044-1.135.291-2.188.854-3.075,1.646-.887.791-1.584,1.787-2.033,2.909l-5.402,13.39-.858.487-13.755-2.513c-1.154-.218-2.34-.151-3.464.197-1.124.347-2.154.965-3.006,1.803-4.443,4.408-8.305,9.409-11.485,14.873-.607,1.04-.97,2.213-1.061,3.426-.091,1.212.093,2.43.537,3.555l5.293,13.436-.277.982-11.435,8.327c-.96.697-1.748,1.619-2.302,2.691-.554,1.073-.859,2.266-.888,3.483-.151,6.388.511,12.768,1.971,18.975.279,1.179.82,2.274,1.58,3.196.759.923,1.716,1.647,2.793,2.115l12.876,5.606.469.893-2.42,14.32c-.209,1.2-.145,2.434.189,3.603s.928,2.24,1.734,3.126c4.234,4.63,9.04,8.656,14.292,11.972c1.002.628,2.133,1.002,3.3,1.092s2.338-.106,3.419-.573l12.916-5.505.944.288l8.006,11.895c.67.998,1.557,1.818,2.588,2.394c1.031.577,2.178.893,3.348.924c6.136.168,12.266-.508,18.232-2.013c1.136-.289,2.192-.851,3.081-1.642.889-.79,1.588-1.787,2.039-2.91l5.389-13.393.858-.487l13.764,2.482c1.152.212,2.336.14,3.456-.211c1.121-.351,2.146-.97,2.994-1.809c4.451-4.404,8.321-9.403,11.509-14.865.604-1.039.966-2.21,1.056-3.421.09-1.21-.093-2.425-.536-3.548l-5.293-13.436Zm-13.552-7.439c-.384,1.726-.864,3.428-1.439,5.096-.627,1.812-.585,3.802.118,5.584l4.856,12.316c-1.354,2.009-2.832,3.923-4.427,5.729l-12.604-2.316c-1.826-.33-3.705.059-5.272,1.09-1.444.94-2.941,1.79-4.482,2.546-1.681.813-3.011,2.248-3.732,4.024l-4.932,12.277c-2.324.423-4.672.687-7.03.79L444.249,503.9c-.974-1.445-2.393-2.501-4.021-2.996-.144-.044-.287-.088-.43-.132-1.66-.399-3.296-.898-4.899-1.496-1.742-.65-3.653-.609-5.367.116l-11.843,5.057c-1.931-1.407-3.771-2.946-5.508-4.604l2.227-13.11c.317-1.9-.056-3.855-1.048-5.484-.904-1.502-1.721-3.059-2.447-4.662-.783-1.749-2.161-3.132-3.869-3.882l-11.804-5.13c-.406-2.417-.66-4.86-.759-7.312l10.487-7.632c1.517-1.103,2.587-2.754,3.001-4.632.383-1.726.864-3.427,1.438-5.095.628-1.813.586-3.803-.117-5.585l-4.844-12.313c1.353-2.008,2.832-3.922,4.426-5.728l12.604,2.316c1.827.33,3.706-.059,5.272-1.09c1.445-.94,2.941-1.79,4.483-2.546c1.681-.813,3.011-2.248,3.731-4.024l4.932-12.277c2.325-.424,4.673-.687,7.03-.79l7.335,10.914c1.066,1.574,2.652,2.683,4.455,3.115c1.66.399,3.296.899,4.899,1.496c1.741.654,3.654.613,5.367-.116l11.843-5.057c1.93,1.412,3.769,2.954,5.504,4.617l-2.227,13.11c-.317,1.9.057,3.854,1.048,5.484.904,1.502,1.722,3.059,2.448,4.662.782,1.748,2.161,3.132,3.869,3.882l11.803,5.13c.407,2.417.66,4.86.759,7.312l-10.486,7.631c-1.522,1.101-2.596,2.751-3.013,4.629Z" stroke="#897cdf" stroke-width="2"/><mask id="ebrt1DQuNPM9" mask-type="luminance" x="-150%" y="-150%" height="400%" width="400%"><path d="M458.375,425.527c-6.144-1.876-12.686-1.815-18.797.175-6.111,1.991-11.517,5.822-15.535,11.008-4.018,5.187-6.468,11.496-7.038,18.131-.571,6.634.763,13.296,3.832,19.142s7.736,10.614,13.411,13.701c5.674,3.087,12.101,4.355,18.469,3.643c6.367-.713,12.388-3.373,17.301-7.644c4.914-4.272,8.499-9.963,10.303-16.355c2.409-8.57,1.451-17.784-2.663-25.62-4.115-7.837-11.049-13.656-19.283-16.181Zm-14.032,49.715c-3.309-1.011-6.255-3.019-8.466-5.771s-3.588-6.124-3.957-9.69c-.369-3.567.287-7.166,1.885-10.344c1.599-3.179,4.067-5.792,7.093-7.512c3.027-1.719,6.475-2.465,9.91-2.146c3.434.32,6.7,1.691,9.385,3.942c2.685,2.25,4.668,5.278,5.699,8.701c1.03,3.423,1.062,7.086.091,10.528-1.303,4.615-4.315,8.502-8.373,10.807s-8.83,2.839-13.267,1.485Zm59.737-.125l.277-.982l11.436-8.327c.959-.697,1.748-1.619,2.302-2.692.554-1.072.858-2.265.888-3.482.162-6.382-.489-12.759-1.935-18.964-.282-1.185-.828-2.284-1.594-3.209s-1.731-1.649-2.816-2.113l-12.872-5.619-.469-.892l2.416-14.308c.21-1.2.145-2.434-.189-3.603-.334-1.17-.928-2.24-1.734-3.127-4.234-4.629-9.04-8.655-14.291-11.971-1.003-.628-2.133-1.002-3.3-1.092-1.167-.091-2.338.106-3.419.572l-12.917,5.506-.944-.288-8.006-11.895c-.67-.998-1.556-1.818-2.587-2.395-1.031-.576-2.178-.892-3.348-.923-6.141-.159-12.274.528-18.241,2.044-1.135.291-2.188.854-3.075,1.646-.887.791-1.584,1.787-2.033,2.909l-5.402,13.39-.858.487-13.755-2.513c-1.154-.218-2.34-.151-3.464.197-1.124.347-2.154.965-3.006,1.803-4.443,4.408-8.305,9.409-11.485,14.873-.607,1.04-.97,2.213-1.061,3.426-.091,1.212.093,2.43.537,3.555l5.293,13.436-.277.982-11.435,8.327c-.96.697-1.748,1.619-2.302,2.691-.554,1.073-.859,2.266-.888,3.483-.151,6.388.511,12.768,1.971,18.975.279,1.179.82,2.274,1.58,3.196.759.923,1.716,1.647,2.793,2.115l12.876,5.606.469.893-2.42,14.32c-.209,1.2-.145,2.434.189,3.603s.928,2.24,1.734,3.126c4.234,4.63,9.04,8.656,14.292,11.972c1.002.628,2.133,1.002,3.3,1.092s2.338-.106,3.419-.573l12.916-5.505.944.288l8.006,11.895c.67.998,1.557,1.818,2.588,2.394c1.031.577,2.178.893,3.348.924c6.136.168,12.266-.508,18.232-2.013c1.136-.289,2.192-.851,3.081-1.642.889-.79,1.588-1.787,2.039-2.91l5.389-13.393.858-.487l13.764,2.482c1.152.212,2.336.14,3.456-.211c1.121-.351,2.146-.97,2.994-1.809c4.451-4.404,8.321-9.403,11.509-14.865.604-1.039.966-2.21,1.056-3.421.09-1.21-.093-2.425-.536-3.548l-5.293-13.436Zm-13.552-7.439c-.384,1.726-.864,3.428-1.439,5.096-.627,1.812-.585,3.802.118,5.584l4.856,12.316c-1.354,2.009-2.832,3.923-4.427,5.729l-12.604-2.316c-1.826-.33-3.705.059-5.272,1.09-1.444.94-2.941,1.79-4.482,2.546-1.681.813-3.011,2.248-3.732,4.024l-4.932,12.277c-2.324.423-4.672.687-7.03.79L444.249,503.9c-.974-1.445-2.393-2.501-4.021-2.996-.144-.044-.287-.088-.43-.132-1.66-.399-3.296-.898-4.899-1.496-1.742-.65-3.653-.609-5.367.116l-11.843,5.057c-1.931-1.407-3.771-2.946-5.508-4.604l2.227-13.11c.317-1.9-.056-3.855-1.048-5.484-.904-1.502-1.721-3.059-2.447-4.662-.783-1.749-2.161-3.132-3.869-3.882l-11.804-5.13c-.406-2.417-.66-4.86-.759-7.312l10.487-7.632c1.517-1.103,2.587-2.754,3.001-4.632.383-1.726.864-3.427,1.438-5.095.628-1.813.586-3.803-.117-5.585l-4.844-12.313c1.353-2.008,2.832-3.922,4.426-5.728l12.604,2.316c1.827.33,3.706-.059,5.272-1.09c1.445-.94,2.941-1.79,4.483-2.546c1.681-.813,3.011-2.248,3.731-4.024l4.932-12.277c2.325-.424,4.673-.687,7.03-.79l7.335,10.914c1.066,1.574,2.652,2.683,4.455,3.115c1.66.399,3.296.899,4.899,1.496c1.741.654,3.654.613,5.367-.116l11.843-5.057c1.93,1.412,3.769,2.954,5.504,4.617l-2.227,13.11c-.317,1.9.057,3.854,1.048,5.484.904,1.502,1.722,3.059,2.448,4.662.782,1.748,2.161,3.132,3.869,3.882l11.803,5.13c.407,2.417.66,4.86.759,7.312l-10.486,7.631c-1.522,1.101-2.596,2.751-3.013,4.629Z" transform="translate(.000001 0)" fill="#fff"/></mask></g></g><clipPath id="ebrt1DQuNPM11"><rect width="159.917007" height="165.302002" rx="0" ry="0" transform="matrix(.9564 0.292061-.271639 0.962399 395.233002 354.945007)" fill="#fff"/></clipPath></g></g><clipPath id="ebrt1DQuNPM13"><rect width="799.585999" height="826.510986" rx="0" ry="0" transform="matrix(.9564 0.292061-.271639 0.962399 224.511993 0.41333)" fill="#fff"/></clipPath></g></svg>
