<svg width="801" height="1030" viewBox="0 0 801 1030" fill="none" xmlns="http://www.w3.org/2000/svg">
 
<path class = "bulb" d="M311.724 379.327C302.805 411.322 300.996 445.007 306.434 477.838C311.872 510.668 324.415 541.784 343.116 568.834L343.117 568.836C352.5 582.28 358.989 597.67 362.141 613.96C365.292 630.249 365.033 647.055 361.38 663.232L361.275 663.695L361.728 663.834L529.31 715.009L529.763 715.147L529.916 714.7C535.276 699.009 543.806 684.696 554.932 672.725C566.058 660.754 579.52 651.404 594.411 645.303L594.412 645.303C624.308 632.959 651.096 613.677 672.734 588.928C694.373 564.179 710.291 534.617 719.274 502.497C727.254 474.255 729.721 444.637 726.531 415.387C723.34 386.136 714.555 357.844 700.693 332.176C686.83 306.508 668.17 283.982 645.81 265.927C623.451 247.872 597.844 234.651 570.497 227.045C459.549 196.142 343.496 264.461 311.724 379.327ZM311.724 379.327L312.203 379.472L311.724 379.328C311.724 379.328 311.724 379.328 311.724 379.327ZM790.01 524.1L790.01 524.101C777.911 567.383 756.465 607.217 727.309 640.562C698.154 673.906 662.061 699.879 621.786 716.499C616.277 718.692 611.326 722.166 607.31 726.653C603.293 731.142 600.317 736.526 598.609 742.394L598.608 742.398L596.854 748.612C592.237 764.971 581.562 778.749 567.182 786.917C552.802 795.085 535.897 796.974 520.184 792.176L329.003 733.794C313.29 728.996 300.05 717.9 292.198 702.944C284.345 687.986 282.524 670.393 287.142 654.034L288.896 647.82C290.522 642.031 290.848 635.93 289.847 629.989C288.847 624.048 286.547 618.425 283.123 613.553C257.923 577.105 241.022 535.172 233.7 490.925C226.379 446.678 228.829 401.277 240.866 358.158L240.866 358.157C283.692 203.328 440.116 111.318 589.624 152.932C626.458 163.187 660.948 181.002 691.065 205.33C721.181 229.658 746.315 260.007 764.988 294.592C783.661 329.177 795.495 367.298 799.792 406.713C804.09 446.129 800.764 486.04 790.01 524.1ZM663.018 467.424L662.901 468.141L663.025 468.118C662.135 472.818 660.406 477.306 657.926 481.348C655.319 485.597 651.933 489.269 647.963 492.155C643.993 495.041 639.517 497.085 634.789 498.171C630.062 499.257 625.177 499.363 620.411 498.485C615.646 497.607 611.094 495.761 607.014 493.052C602.934 490.344 599.406 486.826 596.632 482.697C591.029 474.36 588.838 464.044 590.545 454.02L590.546 454.015C592.87 439.434 591.225 424.466 585.796 410.803C580.369 397.143 571.374 385.332 559.828 376.707C552.171 370.655 547.088 361.725 545.67 351.822C544.252 341.915 546.614 331.823 552.252 323.703C557.891 315.583 566.355 310.082 575.833 308.37C585.308 306.658 595.05 308.867 602.98 314.524C625.689 331.652 643.347 355.043 653.956 382.059C664.567 409.077 667.706 438.645 663.018 467.424ZM558.266 885.327C555.51 895.094 549.137 903.318 540.554 908.193C531.972 913.067 521.885 914.195 512.51 911.332L273.534 838.354C264.159 835.491 256.258 828.871 251.571 819.945C246.884 811.017 245.797 800.515 248.554 790.749C251.31 780.983 257.683 772.758 266.265 767.883C274.847 763.009 284.935 761.882 294.31 764.745L533.286 837.722C542.661 840.585 550.562 847.205 555.249 856.132C559.935 865.059 561.023 875.561 558.266 885.327Z" fill="black" stroke="url(#paint0_linear_334_1128)"/>
<g clip-path="url(#clip1_334_1128)">
<mask id="path-2-inside-1_334_1128" fill="white">
<path class= "bulb" d="M458.375 425.527C452.231 423.651 445.689 423.712 439.578 425.702C433.467 427.693 428.061 431.524 424.043 436.71C420.025 441.897 417.575 448.206 417.005 454.841C416.434 461.475 417.768 468.137 420.837 473.983C423.906 479.829 428.573 484.597 434.248 487.684C439.922 490.771 446.349 492.039 452.717 491.327C459.084 490.614 465.105 487.954 470.018 483.683C474.932 479.411 478.517 473.72 480.321 467.328C482.73 458.758 481.772 449.544 477.658 441.708C473.543 433.871 466.609 428.052 458.375 425.527ZM444.343 475.242C441.034 474.231 438.088 472.223 435.877 469.471C433.666 466.719 432.289 463.347 431.92 459.781C431.551 456.214 432.207 452.615 433.805 449.437C435.404 446.258 437.872 443.645 440.898 441.925C443.925 440.206 447.373 439.46 450.808 439.779C454.242 440.099 457.508 441.47 460.193 443.721C462.878 445.971 464.861 448.999 465.892 452.422C466.922 455.845 466.954 459.508 465.983 462.95C464.68 467.565 461.668 471.452 457.61 473.757C453.552 476.062 448.78 476.596 444.343 475.242ZM504.08 475.117L504.357 474.135L515.793 465.808C516.752 465.111 517.541 464.189 518.095 463.116C518.649 462.044 518.953 460.851 518.983 459.634C519.145 453.252 518.494 446.875 517.048 440.67C516.766 439.485 516.22 438.386 515.454 437.461C514.688 436.536 513.723 435.812 512.638 435.348L499.766 429.729L499.297 428.837L501.713 414.529C501.923 413.329 501.858 412.095 501.524 410.926C501.19 409.756 500.596 408.686 499.79 407.799C495.556 403.17 490.75 399.144 485.499 395.828C484.496 395.2 483.366 394.826 482.199 394.736C481.032 394.645 479.861 394.842 478.78 395.308L465.863 400.814L464.919 400.526L456.913 388.631C456.243 387.633 455.357 386.813 454.326 386.236C453.295 385.66 452.148 385.344 450.978 385.313C444.837 385.154 438.704 385.841 432.737 387.357C431.602 387.648 430.549 388.211 429.662 389.003C428.775 389.794 428.078 390.79 427.629 391.912L422.227 405.302L421.369 405.789L407.614 403.276C406.46 403.058 405.274 403.125 404.15 403.473C403.026 403.82 401.996 404.438 401.144 405.276C396.701 409.684 392.839 414.685 389.659 420.149C389.052 421.189 388.689 422.362 388.598 423.575C388.507 424.787 388.691 426.005 389.135 427.13L394.428 440.566L394.151 441.548L382.716 449.875C381.756 450.572 380.968 451.494 380.414 452.566C379.86 453.639 379.555 454.832 379.526 456.049C379.375 462.437 380.037 468.817 381.497 475.024C381.776 476.203 382.317 477.298 383.077 478.22C383.836 479.143 384.793 479.867 385.87 480.335L398.746 485.941L399.215 486.834L396.795 501.154C396.586 502.354 396.65 503.588 396.984 504.757C397.318 505.926 397.912 506.997 398.718 507.883C402.952 512.513 407.758 516.539 413.01 519.855C414.012 520.483 415.143 520.857 416.31 520.947C417.477 521.037 418.648 520.841 419.729 520.374L432.645 514.869L433.589 515.157L441.595 527.052C442.265 528.05 443.152 528.87 444.183 529.446C445.214 530.023 446.361 530.339 447.531 530.37C453.667 530.538 459.797 529.862 465.763 528.357C466.899 528.068 467.955 527.506 468.844 526.715C469.733 525.925 470.432 524.928 470.883 523.805L476.272 510.412L477.13 509.925L490.894 512.407C492.046 512.619 493.23 512.547 494.35 512.196C495.471 511.845 496.496 511.226 497.344 510.387C501.795 505.983 505.665 500.984 508.853 495.522C509.457 494.483 509.819 493.312 509.909 492.101C509.999 490.891 509.816 489.676 509.373 488.553L504.08 475.117ZM490.528 467.678C490.144 469.404 489.664 471.106 489.089 472.774C488.462 474.586 488.504 476.576 489.207 478.358L494.063 490.674C492.709 492.683 491.231 494.597 489.636 496.403L477.032 494.087C475.206 493.757 473.327 494.146 471.76 495.177C470.316 496.117 468.819 496.967 467.278 497.723C465.597 498.536 464.267 499.971 463.546 501.747L458.614 514.024C456.29 514.447 453.942 514.711 451.584 514.814L444.249 503.9C443.275 502.455 441.856 501.399 440.228 500.904C440.084 500.86 439.941 500.816 439.798 500.772C438.138 500.373 436.502 499.874 434.899 499.276C433.157 498.626 431.246 498.667 429.532 499.392L417.689 504.449C415.758 503.042 413.918 501.503 412.181 499.845L414.408 486.735C414.725 484.835 414.352 482.88 413.36 481.251C412.456 479.749 411.639 478.192 410.913 476.589C410.13 474.84 408.752 473.457 407.044 472.707L395.24 467.577C394.834 465.16 394.58 462.717 394.481 460.265L404.968 452.633C406.485 451.53 407.555 449.879 407.969 448.001C408.352 446.275 408.833 444.574 409.407 442.906C410.035 441.093 409.993 439.103 409.29 437.321L404.446 425.008C405.799 423 407.278 421.086 408.872 419.28L421.476 421.596C423.303 421.926 425.182 421.537 426.748 420.506C428.193 419.566 429.689 418.716 431.231 417.96C432.912 417.147 434.242 415.712 434.962 413.936L439.894 401.659C442.219 401.235 444.567 400.972 446.924 400.869L454.259 411.783C455.325 413.357 456.911 414.466 458.714 414.898C460.374 415.297 462.01 415.797 463.613 416.394C465.354 417.048 467.267 417.007 468.98 416.278L480.823 411.221C482.753 412.633 484.592 414.175 486.327 415.838L484.1 428.948C483.783 430.848 484.157 432.802 485.148 434.432C486.052 435.934 486.87 437.491 487.596 439.094C488.378 440.842 489.757 442.226 491.465 442.976L503.268 448.106C503.675 450.523 503.928 452.966 504.027 455.418L493.541 463.049C492.019 464.15 490.945 465.8 490.528 467.678Z"/>
</mask>
<path d="M458.375 425.527C452.231 423.651 445.689 423.712 439.578 425.702C433.467 427.693 428.061 431.524 424.043 436.71C420.025 441.897 417.575 448.206 417.005 454.841C416.434 461.475 417.768 468.137 420.837 473.983C423.906 479.829 428.573 484.597 434.248 487.684C439.922 490.771 446.349 492.039 452.717 491.327C459.084 490.614 465.105 487.954 470.018 483.683C474.932 479.411 478.517 473.72 480.321 467.328C482.73 458.758 481.772 449.544 477.658 441.708C473.543 433.871 466.609 428.052 458.375 425.527ZM444.343 475.242C441.034 474.231 438.088 472.223 435.877 469.471C433.666 466.719 432.289 463.347 431.92 459.781C431.551 456.214 432.207 452.615 433.805 449.437C435.404 446.258 437.872 443.645 440.898 441.925C443.925 440.206 447.373 439.46 450.808 439.779C454.242 440.099 457.508 441.47 460.193 443.721C462.878 445.971 464.861 448.999 465.892 452.422C466.922 455.845 466.954 459.508 465.983 462.95C464.68 467.565 461.668 471.452 457.61 473.757C453.552 476.062 448.78 476.596 444.343 475.242ZM504.08 475.117L504.357 474.135L515.793 465.808C516.752 465.111 517.541 464.189 518.095 463.116C518.649 462.044 518.953 460.851 518.983 459.634C519.145 453.252 518.494 446.875 517.048 440.67C516.766 439.485 516.22 438.386 515.454 437.461C514.688 436.536 513.723 435.812 512.638 435.348L499.766 429.729L499.297 428.837L501.713 414.529C501.923 413.329 501.858 412.095 501.524 410.926C501.19 409.756 500.596 408.686 499.79 407.799C495.556 403.17 490.75 399.144 485.499 395.828C484.496 395.2 483.366 394.826 482.199 394.736C481.032 394.645 479.861 394.842 478.78 395.308L465.863 400.814L464.919 400.526L456.913 388.631C456.243 387.633 455.357 386.813 454.326 386.236C453.295 385.66 452.148 385.344 450.978 385.313C444.837 385.154 438.704 385.841 432.737 387.357C431.602 387.648 430.549 388.211 429.662 389.003C428.775 389.794 428.078 390.79 427.629 391.912L422.227 405.302L421.369 405.789L407.614 403.276C406.46 403.058 405.274 403.125 404.15 403.473C403.026 403.82 401.996 404.438 401.144 405.276C396.701 409.684 392.839 414.685 389.659 420.149C389.052 421.189 388.689 422.362 388.598 423.575C388.507 424.787 388.691 426.005 389.135 427.13L394.428 440.566L394.151 441.548L382.716 449.875C381.756 450.572 380.968 451.494 380.414 452.566C379.86 453.639 379.555 454.832 379.526 456.049C379.375 462.437 380.037 468.817 381.497 475.024C381.776 476.203 382.317 477.298 383.077 478.22C383.836 479.143 384.793 479.867 385.87 480.335L398.746 485.941L399.215 486.834L396.795 501.154C396.586 502.354 396.65 503.588 396.984 504.757C397.318 505.926 397.912 506.997 398.718 507.883C402.952 512.513 407.758 516.539 413.01 519.855C414.012 520.483 415.143 520.857 416.31 520.947C417.477 521.037 418.648 520.841 419.729 520.374L432.645 514.869L433.589 515.157L441.595 527.052C442.265 528.05 443.152 528.87 444.183 529.446C445.214 530.023 446.361 530.339 447.531 530.37C453.667 530.538 459.797 529.862 465.763 528.357C466.899 528.068 467.955 527.506 468.844 526.715C469.733 525.925 470.432 524.928 470.883 523.805L476.272 510.412L477.13 509.925L490.894 512.407C492.046 512.619 493.23 512.547 494.35 512.196C495.471 511.845 496.496 511.226 497.344 510.387C501.795 505.983 505.665 500.984 508.853 495.522C509.457 494.483 509.819 493.312 509.909 492.101C509.999 490.891 509.816 489.676 509.373 488.553L504.08 475.117ZM490.528 467.678C490.144 469.404 489.664 471.106 489.089 472.774C488.462 474.586 488.504 476.576 489.207 478.358L494.063 490.674C492.709 492.683 491.231 494.597 489.636 496.403L477.032 494.087C475.206 493.757 473.327 494.146 471.76 495.177C470.316 496.117 468.819 496.967 467.278 497.723C465.597 498.536 464.267 499.971 463.546 501.747L458.614 514.024C456.29 514.447 453.942 514.711 451.584 514.814L444.249 503.9C443.275 502.455 441.856 501.399 440.228 500.904C440.084 500.86 439.941 500.816 439.798 500.772C438.138 500.373 436.502 499.874 434.899 499.276C433.157 498.626 431.246 498.667 429.532 499.392L417.689 504.449C415.758 503.042 413.918 501.503 412.181 499.845L414.408 486.735C414.725 484.835 414.352 482.88 413.36 481.251C412.456 479.749 411.639 478.192 410.913 476.589C410.13 474.84 408.752 473.457 407.044 472.707L395.24 467.577C394.834 465.16 394.58 462.717 394.481 460.265L404.968 452.633C406.485 451.53 407.555 449.879 407.969 448.001C408.352 446.275 408.833 444.574 409.407 442.906C410.035 441.093 409.993 439.103 409.29 437.321L404.446 425.008C405.799 423 407.278 421.086 408.872 419.28L421.476 421.596C423.303 421.926 425.182 421.537 426.748 420.506C428.193 419.566 429.689 418.716 431.231 417.96C432.912 417.147 434.242 415.712 434.962 413.936L439.894 401.659C442.219 401.235 444.567 400.972 446.924 400.869L454.259 411.783C455.325 413.357 456.911 414.466 458.714 414.898C460.374 415.297 462.01 415.797 463.613 416.394C465.354 417.048 467.267 417.007 468.98 416.278L480.823 411.221C482.753 412.633 484.592 414.175 486.327 415.838L484.1 428.948C483.783 430.848 484.157 432.802 485.148 434.432C486.052 435.934 486.87 437.491 487.596 439.094C488.378 440.842 489.757 442.226 491.465 442.976L503.268 448.106C503.675 450.523 503.928 452.966 504.027 455.418L493.541 463.049C492.019 464.15 490.945 465.8 490.528 467.678Z" fill="black" stroke="#897CDF" stroke-width="2" mask="url(#path-2-inside-1_334_1128)"/>
</g>
</g>
<!-- <defs>
<linearGradient id="paint0_linear_334_1128" x1="596.372" y1="154.38" x2="377.635" y2="870.667" gradientUnits="userSpaceOnUse">
<stop stop-color="#EE7FA7"/>
<stop offset="1" stop-color="#997ED7"/>
</linearGradient>
<clipPath id="clip0_334_1128">
<rect width="799.586" height="826.511" fill="white" transform="matrix(0.9564 0.292061 -0.271639 0.962399 224.512 0.41333)"/>
</clipPath>
<clipPath id="clip1_334_1128">
<rect width="159.917" height="165.302" fill="white" transform="matrix(0.9564 0.292061 -0.271639 0.962399 395.233 354.945)"/>
</clipPath>
</defs> -->
<defs>
    <linearGradient id="paint0_linear_334_1128" x1="596.372" y1="154.38" x2="377.635" y2="870.667" gradientUnits="userSpaceOnUse">
      <stop stop-color="#EE7FA7"/>
      <stop offset="1" stop-color="#997ED7"/>
    </linearGradient>
    <clipPath id="clip0_334_1128">
      <rect width="799.586" height="826.511" fill="white" transform="matrix(0.9564 0.292061 -0.271639 0.962399 224.512 0.41333)"/>
    </clipPath>
    <clipPath id="clip1_334_1128">
      <rect width="159.917" height="165.302" fill="white" transform="matrix(0.9564 0.292061 -0.271639 0.962399 395.233 354.945)"/>
    </clipPath>
  </defs>

 <!-- <style>
    .bulb:hover {
      fill: url(#paint1_linear_334_1128);
    }
  </style> -->
   <linearGradient id="paint1_linear_334_1128" x1="596.372" y1="154.38" x2="377.635" y2="870.667" gradientUnits="userSpaceOnUse">
    <stop stop-color="#FFD700"/> <!-- Bright gold color for the glow effect -->
    <stop offset="1" stop-color="#FFFF00"/> <!-- Yellow color for the glow effect -->
  </linearGradient>

</svg>
