<svg width="801" height="1030" viewBox="0 0 801 1030" fill="none" xmlns="http://www.w3.org/2000/svg">
<g id="Lightbulb" opacity="0.2" clip-path="url(#clip0_334_1128)">
<g id="Vector">
<mask id="path-1-inside-1_334_1128" fill="white">
<path d="M558.744 885.473C555.953 895.362 549.5 903.693 540.803 908.632C532.107 913.572 521.881 914.716 512.374 911.813L273.398 838.835C263.891 835.932 255.882 829.22 251.133 820.174C246.384 811.129 245.284 800.492 248.075 790.603C250.867 780.714 257.32 772.384 266.016 767.444C274.712 762.504 284.939 761.36 294.446 764.264L533.422 837.241C542.929 840.144 550.938 846.857 555.687 855.902C560.436 864.948 561.535 875.585 558.744 885.473ZM790.488 524.246C778.37 567.599 756.889 607.499 727.684 640.899C698.48 674.3 662.324 700.317 621.978 716.966C616.539 719.131 611.649 722.561 607.681 726.995C603.713 731.428 600.773 736.747 599.086 742.544L597.332 748.758C592.68 765.24 581.925 779.124 567.431 787.357C552.937 795.589 535.893 797.496 520.048 792.657L328.867 734.275C313.022 729.437 299.674 718.249 291.759 703.173C283.845 688.098 282.012 670.369 286.663 653.888L288.418 647.674C290.024 641.956 290.346 635.932 289.357 630.065C288.369 624.198 286.098 618.645 282.718 613.837C257.474 577.326 240.544 535.32 233.21 490.999C225.876 446.678 228.331 401.202 240.388 358.013C283.282 202.937 439.963 110.756 589.748 152.447C626.649 162.721 661.201 180.568 691.37 204.94C721.54 229.311 746.719 259.713 765.423 294.357C784.128 329.001 795.982 367.187 800.286 406.667C804.591 446.147 801.26 486.125 790.488 524.246ZM718.796 502.353C726.758 474.172 729.22 444.619 726.037 415.433C722.853 386.247 714.088 358.019 700.257 332.411C686.427 306.802 667.811 284.33 645.505 266.318C623.199 248.306 597.653 235.118 570.373 227.53C459.702 196.704 343.906 264.853 312.203 379.472C303.304 411.396 301.499 445.007 306.924 477.763C312.35 510.52 324.864 541.565 343.521 568.55C352.946 582.055 359.463 597.512 362.628 613.871C365.794 630.231 365.533 647.107 361.864 663.352L529.446 714.528C534.828 698.772 543.394 684.399 554.567 672.377C565.74 660.355 579.261 650.964 594.218 644.837C624.043 632.522 650.77 613.284 672.36 588.591C693.949 563.898 709.832 534.402 718.796 502.353ZM663.508 467.514C668.211 438.646 665.063 408.986 654.418 381.881C643.773 354.776 626.056 331.305 603.267 314.119C595.225 308.38 585.345 306.139 575.737 307.875C566.129 309.611 557.554 315.186 551.844 323.409C546.134 331.632 543.742 341.852 545.178 351.885C546.614 361.918 551.766 370.969 559.531 377.105C571.003 385.673 579.941 397.408 585.336 410.983C590.73 424.559 592.365 439.434 590.055 453.926C588.326 464.076 590.545 474.526 596.222 482.975C599.034 487.159 602.61 490.725 606.746 493.471C610.883 496.218 615.499 498.089 620.331 498.98C625.163 499.87 630.116 499.762 634.908 498.662C639.7 497.561 644.236 495.489 648.258 492.565C652.28 489.641 655.709 485.921 658.349 481.619C660.989 477.316 662.789 472.515 663.645 467.489L663.508 467.514Z"/>
</mask>
<path d="M558.744 885.473C555.953 895.362 549.5 903.693 540.803 908.632C532.107 913.572 521.881 914.716 512.374 911.813L273.398 838.835C263.891 835.932 255.882 829.22 251.133 820.174C246.384 811.129 245.284 800.492 248.075 790.603C250.867 780.714 257.32 772.384 266.016 767.444C274.712 762.504 284.939 761.36 294.446 764.264L533.422 837.241C542.929 840.144 550.938 846.857 555.687 855.902C560.436 864.948 561.535 875.585 558.744 885.473ZM790.488 524.246C778.37 567.599 756.889 607.499 727.684 640.899C698.48 674.3 662.324 700.317 621.978 716.966C616.539 719.131 611.649 722.561 607.681 726.995C603.713 731.428 600.773 736.747 599.086 742.544L597.332 748.758C592.68 765.24 581.925 779.124 567.431 787.357C552.937 795.589 535.893 797.496 520.048 792.657L328.867 734.275C313.022 729.437 299.674 718.249 291.759 703.173C283.845 688.098 282.012 670.369 286.663 653.888L288.418 647.674C290.024 641.956 290.346 635.932 289.357 630.065C288.369 624.198 286.098 618.645 282.718 613.837C257.474 577.326 240.544 535.32 233.21 490.999C225.876 446.678 228.331 401.202 240.388 358.013C283.282 202.937 439.963 110.756 589.748 152.447C626.649 162.721 661.201 180.568 691.37 204.94C721.54 229.311 746.719 259.713 765.423 294.357C784.128 329.001 795.982 367.187 800.286 406.667C804.591 446.147 801.26 486.125 790.488 524.246ZM718.796 502.353C726.758 474.172 729.22 444.619 726.037 415.433C722.853 386.247 714.088 358.019 700.257 332.411C686.427 306.802 667.811 284.33 645.505 266.318C623.199 248.306 597.653 235.118 570.373 227.53C459.702 196.704 343.906 264.853 312.203 379.472C303.304 411.396 301.499 445.007 306.924 477.763C312.35 510.52 324.864 541.565 343.521 568.55C352.946 582.055 359.463 597.512 362.628 613.871C365.794 630.231 365.533 647.107 361.864 663.352L529.446 714.528C534.828 698.772 543.394 684.399 554.567 672.377C565.74 660.355 579.261 650.964 594.218 644.837C624.043 632.522 650.77 613.284 672.36 588.591C693.949 563.898 709.832 534.402 718.796 502.353ZM663.508 467.514C668.211 438.646 665.063 408.986 654.418 381.881C643.773 354.776 626.056 331.305 603.267 314.119C595.225 308.38 585.345 306.139 575.737 307.875C566.129 309.611 557.554 315.186 551.844 323.409C546.134 331.632 543.742 341.852 545.178 351.885C546.614 361.918 551.766 370.969 559.531 377.105C571.003 385.673 579.941 397.408 585.336 410.983C590.73 424.559 592.365 439.434 590.055 453.926C588.326 464.076 590.545 474.526 596.222 482.975C599.034 487.159 602.61 490.725 606.746 493.471C610.883 496.218 615.499 498.089 620.331 498.98C625.163 499.87 630.116 499.762 634.908 498.662C639.7 497.561 644.236 495.489 648.258 492.565C652.28 489.641 655.709 485.921 658.349 481.619C660.989 477.316 662.789 472.515 663.645 467.489L663.508 467.514Z" fill="black" stroke="url(#paint0_linear_334_1128)" stroke-width="3" mask="url(#path-1-inside-1_334_1128)"/>
</g>
<g id="Gear" clip-path="url(#clip1_334_1128)">
<g id="Vector_2">
<mask id="path-2-inside-2_334_1128" fill="white">
<path d="M458.375 425.527C452.231 423.651 445.689 423.712 439.578 425.702C433.467 427.693 428.061 431.524 424.043 436.71C420.025 441.897 417.575 448.206 417.005 454.841C416.434 461.475 417.768 468.137 420.837 473.983C423.906 479.829 428.573 484.597 434.248 487.684C439.922 490.771 446.349 492.039 452.717 491.327C459.084 490.614 465.105 487.954 470.018 483.683C474.932 479.411 478.517 473.72 480.321 467.328C482.73 458.758 481.772 449.544 477.658 441.708C473.543 433.871 466.609 428.052 458.375 425.527ZM444.343 475.242C441.034 474.231 438.088 472.223 435.877 469.471C433.666 466.719 432.289 463.347 431.92 459.781C431.551 456.214 432.207 452.615 433.805 449.437C435.404 446.258 437.872 443.645 440.898 441.925C443.925 440.206 447.373 439.46 450.808 439.779C454.242 440.099 457.508 441.47 460.193 443.721C462.878 445.971 464.861 448.999 465.892 452.422C466.922 455.845 466.954 459.508 465.983 462.95C464.68 467.565 461.668 471.452 457.61 473.757C453.552 476.062 448.78 476.596 444.343 475.242ZM504.08 475.117L504.357 474.135L515.793 465.808C516.752 465.111 517.541 464.189 518.095 463.116C518.649 462.044 518.953 460.851 518.983 459.634C519.145 453.252 518.494 446.875 517.048 440.67C516.766 439.485 516.22 438.386 515.454 437.461C514.688 436.536 513.723 435.812 512.638 435.348L499.766 429.729L499.297 428.837L501.713 414.529C501.923 413.329 501.858 412.095 501.524 410.926C501.19 409.756 500.596 408.686 499.79 407.799C495.556 403.17 490.75 399.144 485.499 395.828C484.496 395.2 483.366 394.826 482.199 394.736C481.032 394.645 479.861 394.842 478.78 395.308L465.863 400.814L464.919 400.526L456.913 388.631C456.243 387.633 455.357 386.813 454.326 386.236C453.295 385.66 452.148 385.344 450.978 385.313C444.837 385.154 438.704 385.841 432.737 387.357C431.602 387.648 430.549 388.211 429.662 389.003C428.775 389.794 428.078 390.79 427.629 391.912L422.227 405.302L421.369 405.789L407.614 403.276C406.46 403.058 405.274 403.125 404.15 403.473C403.026 403.82 401.996 404.438 401.144 405.276C396.701 409.684 392.839 414.685 389.659 420.149C389.052 421.189 388.689 422.362 388.598 423.575C388.507 424.787 388.691 426.005 389.135 427.13L394.428 440.566L394.151 441.548L382.716 449.875C381.756 450.572 380.968 451.494 380.414 452.566C379.86 453.639 379.555 454.832 379.526 456.049C379.375 462.437 380.037 468.817 381.497 475.024C381.776 476.203 382.317 477.298 383.077 478.22C383.836 479.143 384.793 479.867 385.87 480.335L398.746 485.941L399.215 486.834L396.795 501.154C396.586 502.354 396.65 503.588 396.984 504.757C397.318 505.926 397.912 506.997 398.718 507.883C402.952 512.513 407.758 516.539 413.01 519.855C414.012 520.483 415.143 520.857 416.31 520.947C417.477 521.037 418.648 520.841 419.729 520.374L432.645 514.869L433.589 515.157L441.595 527.052C442.265 528.05 443.152 528.87 444.183 529.446C445.214 530.023 446.361 530.339 447.531 530.37C453.667 530.538 459.797 529.862 465.763 528.357C466.899 528.068 467.955 527.506 468.844 526.715C469.733 525.925 470.432 524.928 470.883 523.805L476.272 510.412L477.13 509.925L490.894 512.407C492.046 512.619 493.23 512.547 494.35 512.196C495.471 511.845 496.496 511.226 497.344 510.387C501.795 505.983 505.665 500.984 508.853 495.522C509.457 494.483 509.819 493.312 509.909 492.101C509.999 490.891 509.816 489.676 509.373 488.553L504.08 475.117ZM490.528 467.678C490.144 469.404 489.664 471.106 489.089 472.774C488.462 474.586 488.504 476.576 489.207 478.358L494.063 490.674C492.709 492.683 491.231 494.597 489.636 496.403L477.032 494.087C475.206 493.757 473.327 494.146 471.76 495.177C470.316 496.117 468.819 496.967 467.278 497.723C465.597 498.536 464.267 499.971 463.546 501.747L458.614 514.024C456.29 514.447 453.942 514.711 451.584 514.814L444.249 503.9C443.275 502.455 441.856 501.399 440.228 500.904C440.084 500.86 439.941 500.816 439.798 500.772C438.138 500.373 436.502 499.874 434.899 499.276C433.157 498.626 431.246 498.667 429.532 499.392L417.689 504.449C415.758 503.042 413.918 501.503 412.181 499.845L414.408 486.735C414.725 484.835 414.352 482.88 413.36 481.251C412.456 479.749 411.639 478.192 410.913 476.589C410.13 474.84 408.752 473.457 407.044 472.707L395.24 467.577C394.834 465.16 394.58 462.717 394.481 460.265L404.968 452.633C406.485 451.53 407.555 449.879 407.969 448.001C408.352 446.275 408.833 444.574 409.407 442.906C410.035 441.093 409.993 439.103 409.29 437.321L404.446 425.008C405.799 423 407.278 421.086 408.872 419.28L421.476 421.596C423.303 421.926 425.182 421.537 426.748 420.506C428.193 419.566 429.689 418.716 431.231 417.96C432.912 417.147 434.242 415.712 434.962 413.936L439.894 401.659C442.219 401.235 444.567 400.972 446.924 400.869L454.259 411.783C455.325 413.357 456.911 414.466 458.714 414.898C460.374 415.297 462.01 415.797 463.613 416.394C465.354 417.048 467.267 417.007 468.98 416.278L480.823 411.221C482.753 412.633 484.592 414.175 486.327 415.838L484.1 428.948C483.783 430.848 484.157 432.802 485.148 434.432C486.052 435.934 486.87 437.491 487.596 439.094C488.378 440.842 489.757 442.226 491.465 442.976L503.268 448.106C503.675 450.523 503.928 452.966 504.027 455.418L493.541 463.049C492.019 464.15 490.945 465.8 490.528 467.678Z"/>
</mask>
<path d="M458.375 425.527C452.231 423.651 445.689 423.712 439.578 425.702C433.467 427.693 428.061 431.524 424.043 436.71C420.025 441.897 417.575 448.206 417.005 454.841C416.434 461.475 417.768 468.137 420.837 473.983C423.906 479.829 428.573 484.597 434.248 487.684C439.922 490.771 446.349 492.039 452.717 491.327C459.084 490.614 465.105 487.954 470.018 483.683C474.932 479.411 478.517 473.72 480.321 467.328C482.73 458.758 481.772 449.544 477.658 441.708C473.543 433.871 466.609 428.052 458.375 425.527ZM444.343 475.242C441.034 474.231 438.088 472.223 435.877 469.471C433.666 466.719 432.289 463.347 431.92 459.781C431.551 456.214 432.207 452.615 433.805 449.437C435.404 446.258 437.872 443.645 440.898 441.925C443.925 440.206 447.373 439.46 450.808 439.779C454.242 440.099 457.508 441.47 460.193 443.721C462.878 445.971 464.861 448.999 465.892 452.422C466.922 455.845 466.954 459.508 465.983 462.95C464.68 467.565 461.668 471.452 457.61 473.757C453.552 476.062 448.78 476.596 444.343 475.242ZM504.08 475.117L504.357 474.135L515.793 465.808C516.752 465.111 517.541 464.189 518.095 463.116C518.649 462.044 518.953 460.851 518.983 459.634C519.145 453.252 518.494 446.875 517.048 440.67C516.766 439.485 516.22 438.386 515.454 437.461C514.688 436.536 513.723 435.812 512.638 435.348L499.766 429.729L499.297 428.837L501.713 414.529C501.923 413.329 501.858 412.095 501.524 410.926C501.19 409.756 500.596 408.686 499.79 407.799C495.556 403.17 490.75 399.144 485.499 395.828C484.496 395.2 483.366 394.826 482.199 394.736C481.032 394.645 479.861 394.842 478.78 395.308L465.863 400.814L464.919 400.526L456.913 388.631C456.243 387.633 455.357 386.813 454.326 386.236C453.295 385.66 452.148 385.344 450.978 385.313C444.837 385.154 438.704 385.841 432.737 387.357C431.602 387.648 430.549 388.211 429.662 389.003C428.775 389.794 428.078 390.79 427.629 391.912L422.227 405.302L421.369 405.789L407.614 403.276C406.46 403.058 405.274 403.125 404.15 403.473C403.026 403.82 401.996 404.438 401.144 405.276C396.701 409.684 392.839 414.685 389.659 420.149C389.052 421.189 388.689 422.362 388.598 423.575C388.507 424.787 388.691 426.005 389.135 427.13L394.428 440.566L394.151 441.548L382.716 449.875C381.756 450.572 380.968 451.494 380.414 452.566C379.86 453.639 379.555 454.832 379.526 456.049C379.375 462.437 380.037 468.817 381.497 475.024C381.776 476.203 382.317 477.298 383.077 478.22C383.836 479.143 384.793 479.867 385.87 480.335L398.746 485.941L399.215 486.834L396.795 501.154C396.586 502.354 396.65 503.588 396.984 504.757C397.318 505.926 397.912 506.997 398.718 507.883C402.952 512.513 407.758 516.539 413.01 519.855C414.012 520.483 415.143 520.857 416.31 520.947C417.477 521.037 418.648 520.841 419.729 520.374L432.645 514.869L433.589 515.157L441.595 527.052C442.265 528.05 443.152 528.87 444.183 529.446C445.214 530.023 446.361 530.339 447.531 530.37C453.667 530.538 459.797 529.862 465.763 528.357C466.899 528.068 467.955 527.506 468.844 526.715C469.733 525.925 470.432 524.928 470.883 523.805L476.272 510.412L477.13 509.925L490.894 512.407C492.046 512.619 493.23 512.547 494.35 512.196C495.471 511.845 496.496 511.226 497.344 510.387C501.795 505.983 505.665 500.984 508.853 495.522C509.457 494.483 509.819 493.312 509.909 492.101C509.999 490.891 509.816 489.676 509.373 488.553L504.08 475.117ZM490.528 467.678C490.144 469.404 489.664 471.106 489.089 472.774C488.462 474.586 488.504 476.576 489.207 478.358L494.063 490.674C492.709 492.683 491.231 494.597 489.636 496.403L477.032 494.087C475.206 493.757 473.327 494.146 471.76 495.177C470.316 496.117 468.819 496.967 467.278 497.723C465.597 498.536 464.267 499.971 463.546 501.747L458.614 514.024C456.29 514.447 453.942 514.711 451.584 514.814L444.249 503.9C443.275 502.455 441.856 501.399 440.228 500.904C440.084 500.86 439.941 500.816 439.798 500.772C438.138 500.373 436.502 499.874 434.899 499.276C433.157 498.626 431.246 498.667 429.532 499.392L417.689 504.449C415.758 503.042 413.918 501.503 412.181 499.845L414.408 486.735C414.725 484.835 414.352 482.88 413.36 481.251C412.456 479.749 411.639 478.192 410.913 476.589C410.13 474.84 408.752 473.457 407.044 472.707L395.24 467.577C394.834 465.16 394.58 462.717 394.481 460.265L404.968 452.633C406.485 451.53 407.555 449.879 407.969 448.001C408.352 446.275 408.833 444.574 409.407 442.906C410.035 441.093 409.993 439.103 409.29 437.321L404.446 425.008C405.799 423 407.278 421.086 408.872 419.28L421.476 421.596C423.303 421.926 425.182 421.537 426.748 420.506C428.193 419.566 429.689 418.716 431.231 417.96C432.912 417.147 434.242 415.712 434.962 413.936L439.894 401.659C442.219 401.235 444.567 400.972 446.924 400.869L454.259 411.783C455.325 413.357 456.911 414.466 458.714 414.898C460.374 415.297 462.01 415.797 463.613 416.394C465.354 417.048 467.267 417.007 468.98 416.278L480.823 411.221C482.753 412.633 484.592 414.175 486.327 415.838L484.1 428.948C483.783 430.848 484.157 432.802 485.148 434.432C486.052 435.934 486.87 437.491 487.596 439.094C488.378 440.842 489.757 442.226 491.465 442.976L503.268 448.106C503.675 450.523 503.928 452.966 504.027 455.418L493.541 463.049C492.019 464.15 490.945 465.8 490.528 467.678Z" fill="black" stroke="#897CDF" stroke-width="3" mask="url(#path-2-inside-2_334_1128)"/>
</g>
</g>
</g>
<defs>
<linearGradient id="paint0_linear_334_1128" x1="596.372" y1="154.38" x2="377.635" y2="870.667" gradientUnits="userSpaceOnUse">
<stop stop-color="#EE7FA7"/>
<stop offset="1" stop-color="#997ED7"/>
</linearGradient>
<clipPath id="clip0_334_1128">
<rect width="799.586" height="826.511" fill="white" transform="matrix(0.9564 0.292061 -0.271639 0.962399 224.512 0.41333)"/>
</clipPath>
<clipPath id="clip1_334_1128">
<rect width="159.917" height="165.302" fill="white" transform="matrix(0.9564 0.292061 -0.271639 0.962399 395.233 354.945)"/>
</clipPath>
</defs>
</svg>
